<svg xmlns="http://www.w3.org/2000/svg" xmlns:xlink="http://www.w3.org/1999/xlink" width="217.378" height="244.289" viewBox="0 0 217.378 244.289"><defs><filter id="a" x="0" y="53.882" width="213.668" height="190.407" filterUnits="userSpaceOnUse"><feOffset input="SourceAlpha"/><feGaussianBlur stdDeviation="5" result="b"/><feFlood flood-color="#bdbdbd" flood-opacity="0.22"/><feComposite operator="in" in2="b"/><feComposite in="SourceGraphic"/></filter></defs><g transform="translate(15.454 2.5)"><g transform="translate(-0.454 0)"><g transform="translate(0 13.439)"><rect width="138.871" height="88.474" transform="translate(22.398)" fill="#d8d9db"/><path d="M22.4,0V134.392H0V53.122L11.2,35.934Z" fill="#a7acb4"/><path d="M-20,0V134.392H2.4V53.122L-8.8,35.934Z" transform="translate(181.27)" fill="#a7acb4"/><g transform="matrix(1, 0, 0, 1, -15, -15.94)" filter="url(#a)"><rect width="183.668" height="160.407" rx="0.1" transform="translate(15 68.88)" fill="#fff"/></g></g><g transform="translate(54.935 124.312)"><path d="M0,5.427a3.717,3.717,0,0,1,2.585-3.54L8.487,0l5.733,1.872A3.741,3.741,0,0,1,16.8,5.427h0A1.972,1.972,0,0,1,14.217,7.3L8.442,5.427,2.584,7.311A1.978,1.978,0,0,1,0,5.427Z" fill="#a674ae"/><path d="M0,5.427a3.717,3.717,0,0,1,2.585-3.54L8.487,0l5.733,1.872A3.741,3.741,0,0,1,16.8,5.427h0A1.972,1.972,0,0,1,14.217,7.3L8.442,5.427,2.584,7.311A1.978,1.978,0,0,1,0,5.427Z" transform="translate(57.117)" fill="#a674ae"/><path d="M17.919,15.689c9.9,0,17.919-5.786,17.919-15.682C17.919-.051,14.064.293,0,.007,0,9.9,8.023,15.689,17.919,15.689Z" transform="translate(19.039 19.039)" fill="#a674ae"/></g><circle cx="6.72" cy="6.72" r="6.72" transform="translate(44.244 76.155)" fill="#d8d9db"/><circle cx="6.72" cy="6.72" r="6.72" transform="translate(125.999 76.155)" fill="#d8d9db"/><path d="M0,82.531V40.877a40.877,40.877,0,1,1,81.755,0V82.531" transform="translate(50.963 0)" fill="none" stroke="#a7acb4" stroke-linecap="round" stroke-linejoin="round" stroke-miterlimit="10" stroke-width="5"/></g><g transform="translate(162.503 173.589)"><path d="M19.711,0A19.711,19.711,0,1,1,0,19.711,19.711,19.711,0,0,1,19.711,0Z" fill="#88ae74"/><text transform="translate(14.225 25.168)" fill="#fff" font-size="17" font-family="SegoeUI, Segoe UI" letter-spacing="-0.01em"><tspan x="0" y="0">0</tspan></text></g></g></svg>