<svg xmlns="http://www.w3.org/2000/svg" xmlns:xlink="http://www.w3.org/1999/xlink" width="102" height="52" viewBox="0 0 102 52">
  <defs>
    <clipPath id="clip-path">
      <rect id="Rectangle_307" data-name="Rectangle 307" width="102" height="52" transform="translate(0 0)" fill="none"/>
    </clipPath>
    <clipPath id="clip-path-2">
      <rect id="Rectangle_308" data-name="Rectangle 308" width="27" height="25.2" fill="none"/>
    </clipPath>
  </defs>
  <g id="Group_393" data-name="Group 393" transform="translate(-1425 -1072)">
    <g id="Group_389" data-name="Group 389" transform="translate(1425 1072)" clip-path="url(#clip-path)">
      <path id="Path_185" data-name="Path 185" d="M21.4,52.289C9.6,52.289,0,46.258,0,38.845S9.6,25.4,21.4,25.4c9.468,0,17.732,3.87,20.447,9.49H49a.994.994,0,0,1,1,.989v5.932a1,1,0,0,1-1,.989H41.847c-2.715,5.619-10.979,9.49-20.447,9.49m0-24.912C10.7,27.377,2,32.521,2,38.845s8.7,11.467,19.4,11.467c8.872,0,16.805-3.728,18.863-8.866a1,1,0,0,1,.93-.624H48V36.868H41.193a1,1,0,0,1-.93-.625c-2.058-5.138-9.991-8.866-18.863-8.866" transform="translate(0 -0.289)" fill="#a674ae"/>
      <path id="Path_186" data-name="Path 186" d="M80.227,40.589H48.775a1.018,1.018,0,0,1,0-1.977H80.227c4.462,0,8.093-4.63,8.093-10.319v-16c0-2.93-1.87-5.314-4.168-5.314H82.892a.9.9,0,0,1-.775-.989A.9.9,0,0,1,82.892,5h1.259C87.3,5,89.87,8.271,89.87,12.291v16c0,6.781-4.327,12.3-9.643,12.3" transform="translate(0 -1.045)" fill="#a674ae"/>
      <path id="Path_187" data-name="Path 187" d="M92,9.886c-2.206,0-4-2.217-4-4.943S89.794,0,92,0s4,2.217,4,4.943-1.794,4.943-4,4.943" transform="translate(-11 0)" fill="#a674ae"/>
    </g>
    <g id="Group_392" data-name="Group 392" transform="translate(1447 1097.4)">
      <g id="Group_391" data-name="Group 391" clip-path="url(#clip-path-2)">
        <path id="Path_188" data-name="Path 188" d="M19.681,9.6C17.635,4.092,10.115,0,1.125,0,.745,0,.375.023,0,.037V25.163c.375.014.745.037,1.125.037,8.99,0,16.51-4.092,18.556-9.6H27v-6Z" transform="translate(0 0)" fill="#a674ae"/>
      </g>
    </g>
  </g>
</svg>
