<svg xmlns="http://www.w3.org/2000/svg" xmlns:xlink="http://www.w3.org/1999/xlink" width="54" height="50" viewBox="0 0 54 50">
  <defs>
    <clipPath id="clip-path">
      <rect id="Rectangle_300" data-name="Rectangle 300" width="54" height="50" transform="translate(-0.5 0.085)" fill="none"/>
    </clipPath>
  </defs>
  <g id="Group_376" data-name="Group 376" transform="translate(0.5 -0.085)">
    <g id="Mask_Group_375" data-name="Mask Group 375" clip-path="url(#clip-path)">
      <path id="Path_162" data-name="Path 162" d="M81.846,1H79v.034a5.122,5.122,0,0,1,4.553,5.089v38.7A5.122,5.122,0,0,1,79,49.913v.034h2.846a5.122,5.122,0,0,0,5.122-5.122V6.122A5.122,5.122,0,0,0,81.846,1" transform="translate(-34.037 -0.431)" fill="#a674ae"/>
      <path id="Path_163" data-name="Path 163" d="M44.394,50.085H5.691A5.7,5.7,0,0,1,0,44.394V5.691A5.7,5.7,0,0,1,5.691,0h38.7a5.7,5.7,0,0,1,5.691,5.691v38.7a5.7,5.7,0,0,1-5.691,5.691M5.691,1.138A4.559,4.559,0,0,0,1.138,5.691v38.7a4.559,4.559,0,0,0,4.553,4.553h38.7a4.559,4.559,0,0,0,4.553-4.553V5.691a4.559,4.559,0,0,0-4.553-4.553Z" fill="#a674ae" stroke="#a674ae" stroke-width="1.5"/>
      <path id="Path_164" data-name="Path 164" d="M81.415,50.085H78.569a.569.569,0,1,1,0-1.138h2.846a4.559,4.559,0,0,0,4.553-4.553V5.691a4.559,4.559,0,0,0-4.553-4.553H78.569a.569.569,0,1,1,0-1.138h2.846a5.7,5.7,0,0,1,5.691,5.691v38.7a5.7,5.7,0,0,1-5.691,5.691" transform="translate(-33.606)" fill="#a674ae"/>
      <path id="Path_165" data-name="Path 165" d="M45.206,19.952H22.976A1.978,1.978,0,0,1,21,17.977v-8A1.978,1.978,0,0,1,22.976,8h22.23a1.977,1.977,0,0,1,1.975,1.976v8a1.977,1.977,0,0,1-1.975,1.976M22.976,9.138a.838.838,0,0,0-.837.837v8a.838.838,0,0,0,.837.837h22.23a.838.838,0,0,0,.837-.837v-8a.838.838,0,0,0-.837-.837Z" transform="translate(-9.048 -3.447)" fill="#a674ae"/>
      <path id="Path_166" data-name="Path 166" d="M43.415,20.261H40.569A.569.569,0,0,1,40,19.691V14.569A.569.569,0,0,1,40.569,14h2.846a.569.569,0,0,1,.569.569v5.122a.569.569,0,0,1-.569.569m-2.277-1.138h1.707V15.138H41.138Z" transform="translate(-17.234 -6.601)" fill="#a674ae"/>
      <path id="Path_167" data-name="Path 167" d="M57.415,20.261H54.569A.569.569,0,0,1,54,19.691V14.569A.569.569,0,0,1,54.569,14h2.846a.569.569,0,0,1,.569.569v5.122a.569.569,0,0,1-.569.569m-2.277-1.138h1.707V15.138H55.138Z" transform="translate(-23.266 -6.601)" fill="#a674ae"/>
      <path id="Path_168" data-name="Path 168" d="M50.138,24.138h-.569a.569.569,0,1,1,0-1.138h.569a.569.569,0,1,1,0,1.138" transform="translate(-21.112 -10.479)" fill="#a674ae"/>
    </g>
  </g>
</svg>
