<svg xmlns="http://www.w3.org/2000/svg" xmlns:xlink="http://www.w3.org/1999/xlink" width="54" height="54" viewBox="0 0 54 54">
  <defs>
    <clipPath id="clip-path">
      <rect id="Rectangle_304" data-name="Rectangle 304" width="54" height="54" fill="none"/>
    </clipPath>
  </defs>
  <g id="Group_384" data-name="Group 384" transform="translate(0 0)">
    <g id="Group_383" data-name="Group 383" transform="translate(0 0)" clip-path="url(#clip-path)">
      <path id="Path_179" data-name="Path 179" d="M40.7,49.636H65.9V37.431H40.7Zm15.372-8.48a1.686,1.686,0,0,1,2.383,0l.942.941.94-.941a1.686,1.686,0,1,1,2.383,2.385l-.941.941-2.382,2.385-2.384-2.385-.941-.941a1.69,1.69,0,0,1,0-2.385M47.8,42.533h3v4h-3Zm-5-3h3v7h-3Z" transform="translate(-17.897 -16.448)" fill="#a674ae"/>
      <path id="Path_180" data-name="Path 180" d="M51.533,14.979H19.268a2.471,2.471,0,0,0-2.467,2.47V39.722a2.471,2.471,0,0,0,2.467,2.47H48v2.422C48,51.2,44.072,51.2,42.78,51.2H14.592c-3.842,0-5.79-2.215-5.79-6.583V38.6c1.471.191,3.189.343,5.2.436V17.448a5.276,5.276,0,0,1,5.268-5.273h3.679V9A29.269,29.269,0,0,0,31,8.019v4.157h3.357l.02-7a2.237,2.237,0,0,0-.114-1.327,1.394,1.394,0,0,0-.771-.74,2.376,2.376,0,0,0-.328-.4C31.19.746,22.855-.066,15.476,0,7.088.08,2.225.971.61,2.727A2.1,2.1,0,0,0,0,4.138V33.088a1.393,1.393,0,0,0,.057.374l0,1.457A1.4,1.4,0,0,0,.37,35.8c.267.33,1.468,1.482,5.63,2.339v6.48C6,50.491,9.212,54,14.592,54H42.78c5.1,0,8.021-3.421,8.021-9.385V42.192h.732A2.471,2.471,0,0,0,54,39.722V17.448a2.471,2.471,0,0,0-2.467-2.47M15.5,2.807C24.443,2.725,29.749,3.842,31,4.56v.474c-.918.453-3.089,1.085-8.082,1.164a1.4,1.4,0,0,0-1.4-1.118c-.4.009-4.165.021-4.576.016A67,67,0,0,1,4,3.976c1.545-.5,4.795-1.109,11.5-1.17M20,18.179H50.8V35.99H20ZM43.919,40.8A1.587,1.587,0,1,1,45.5,39.213,1.585,1.585,0,0,1,43.919,40.8m5.4,0A1.587,1.587,0,1,1,50.9,39.213,1.587,1.587,0,0,1,49.315,40.8" transform="translate(0 0)" fill="#a674ae"/>
    </g>
  </g>
</svg>
