<svg xmlns="http://www.w3.org/2000/svg" xmlns:xlink="http://www.w3.org/1999/xlink" width="50" height="50" viewBox="0 0 50 50">
  <defs>
    <clipPath id="clip-path">
      <rect id="Rectangle_306" data-name="Rectangle 306" width="50" height="50" fill="none"/>
    </clipPath>
  </defs>
  <g id="Group_388" data-name="Group 388" transform="translate(0 0)">
    <g id="Group_387" data-name="Group 387" transform="translate(0 0)" clip-path="url(#clip-path)">
      <path id="Path_181" data-name="Path 181" d="M8.726,25,25,8.727,19.592,3.32a11.336,11.336,0,0,0-16.031,0l-.241.241a11.34,11.34,0,0,0,0,16.034Z" transform="translate(0 0)" fill="#a674ae"/>
      <path id="Path_182" data-name="Path 182" d="M59.235,42.963l-5.407-5.407L37.555,53.828l5.407,5.407a11.336,11.336,0,0,0,16.033,0L59.235,59a11.335,11.335,0,0,0,0-16.032" transform="translate(-12.556 -12.556)" fill="#a674ae"/>
      <path id="Path_183" data-name="Path 183" d="M56.722,7.587l-.241-.242a8.01,8.01,0,0,0-11.326,0L37.081,15.42,48.647,26.986l8.075-8.075a8.006,8.006,0,0,0,0-11.324m-11.709,9.42a1.934,1.934,0,1,1,1.933-1.934,1.934,1.934,0,0,1-1.933,1.934m4.218,4.218a1.933,1.933,0,1,1,1.933-1.933,1.933,1.933,0,0,1-1.933,1.933m.587-9.023a1.933,1.933,0,1,1,1.933-1.934A1.934,1.934,0,0,1,49.818,12.2m4.218,4.218a1.933,1.933,0,1,1,1.934-1.933,1.932,1.932,0,0,1-1.934,1.933" transform="translate(-12.397 -1.672)" fill="#a674ae"/>
      <path id="Path_184" data-name="Path 184" d="M15.853,36.431,7.345,44.94a8.007,8.007,0,0,0,0,11.325l.24.24a8.007,8.007,0,0,0,11.325,0h0L27.42,48ZM10.993,50.489a1.934,1.934,0,1,1,1.933-1.933,1.933,1.933,0,0,1-1.933,1.933m4.218,4.218a1.933,1.933,0,1,1,1.934-1.933,1.932,1.932,0,0,1-1.934,1.933m.587-9.023a1.934,1.934,0,1,1,1.933-1.933A1.933,1.933,0,0,1,15.8,45.684M20.015,49.9a1.933,1.933,0,1,1,1.933-1.933A1.933,1.933,0,0,1,20.015,49.9" transform="translate(-1.671 -12.18)" fill="#a674ae"/>
      <path id="Path_189" data-name="Path 189" d="M.262.135h8.2V16.491H.262Z" transform="translate(16.255 21.987) rotate(-45)" fill="#a674ae"/>
    </g>
  </g>
</svg>
