<svg xmlns="http://www.w3.org/2000/svg" xmlns:xlink="http://www.w3.org/1999/xlink" width="52" height="58" viewBox="0 0 52 58">
  <defs>
    <clipPath id="clip-path">
      <rect id="Rectangle_301" data-name="Rectangle 301" width="52" height="58" fill="none"/>
    </clipPath>
  </defs>
  <g id="Group_1" data-name="Group 1" transform="translate(0 0)">
    <g id="Group_377" data-name="Group 377" transform="translate(0 0)" clip-path="url(#clip-path)">
      <path id="Path_169" data-name="Path 169" d="M48.258,22.942a14.356,14.356,0,0,0-4.368-2.455,8.787,8.787,0,0,1-2.782-1.512,20.09,20.09,0,0,1-1.468-1.521c.007-.039.016-.075.02-.116a1.555,1.555,0,0,0-.4-1.187c-.65-.7-1.227-1.283-1.749-1.812a25.037,25.037,0,0,1-2.01-2.187,32.834,32.834,0,0,1-3.369-5.945,1.533,1.533,0,0,0-.907-.836L28.88.832a1.536,1.536,0,0,0-2.737,1.4l2.482,4.815c-2.814,3.543-6.4,5.634-10.488,8.014-1.237.72-2.507,1.46-3.8,2.266-1.488-1.888-2.946-3.607-3.963-4.776a1.542,1.542,0,0,0-2.168-.157,1.525,1.525,0,0,0-.157,2.158c1.662,1.913,3.373,4.019,4.863,5.978,1.475,2.012,2.895,5.218,2.819,6.091-.83,9.578-4.093,14.762-4.123,14.81-.02.031-.038.062-.055.094s-.971,1.756-2.013,3.439a1.5,1.5,0,0,0,.3,1.95c-.006,0-.014.013-.019.018a4.328,4.328,0,0,1-2.5,1.224,1.544,1.544,0,0,0-.757.2,6.645,6.645,0,0,1-2.419.338c-1.5.047-3.208.1-3.808,1.585a5.65,5.65,0,0,0,1.284,5.818c1.112,1.162,3.7,2.847,8.62,1.224a17.185,17.185,0,0,1,3.089.294A25.583,25.583,0,0,0,17.377,58a16.7,16.7,0,0,0,2.941-.26A12.166,12.166,0,0,0,23.637,56.6a1.51,1.51,0,0,0,1.382-.2c1.913-1.359,5.34-4.026,6.791-6.61a19.375,19.375,0,0,1,3.8-4.446,1.522,1.522,0,0,0,.47-1.279A31.365,31.365,0,0,1,39.1,41.611,20.665,20.665,0,0,1,43.36,39.8c1.032-.364,2.1-.741,3.217-1.194A9.2,9.2,0,0,0,51.9,31.551a9.107,9.107,0,0,0-3.641-8.609M19.781,54.726a16.973,16.973,0,0,1-5.979-.14,18.651,18.651,0,0,0-3.932-.317,1.55,1.55,0,0,0-.418.082c-2.542.877-4.534.748-5.6-.368A2.794,2.794,0,0,1,3.1,51.81c.324-.037.8-.052,1.145-.062A9.38,9.38,0,0,0,7.716,51.2a7.7,7.7,0,0,0,4.133-1.965,7.21,7.21,0,0,0,.909-1.042c3.809,1.7,5.59,3.43,8.365,6.172a8.352,8.352,0,0,1-1.343.364M48.857,31.1a6.134,6.134,0,0,1-3.44,4.67c-1.051.427-2.084.791-3.084,1.143a22.423,22.423,0,0,0-4.964,2.167,32.3,32.3,0,0,0-2.639,2.09,31.009,31.009,0,0,1-2.2-10.643h0a13.305,13.305,0,0,1,4.98-10.865,20.676,20.676,0,0,0,1.647,1.673,11.723,11.723,0,0,0,3.626,2,11.407,11.407,0,0,1,3.542,1.977A6.036,6.036,0,0,1,48.857,31.1" transform="translate(0 0)" fill="#a674ae"/>
      <path id="Path_170" data-name="Path 170" d="M59.165,38.74a1.543,1.543,0,0,0-2.171.127,1.524,1.524,0,0,0,.127,2.16,3.03,3.03,0,0,1,1.233,2.182,3.692,3.692,0,0,1-1.221,2.373A1.534,1.534,0,0,0,59.147,47.9a6.713,6.713,0,0,0,2.282-4.648,5.9,5.9,0,0,0-2.265-4.507" transform="translate(-21.784 -14.877)" fill="#a674ae"/>
    </g>
  </g>
</svg>
