<svg xmlns="http://www.w3.org/2000/svg" xmlns:xlink="http://www.w3.org/1999/xlink" width="55" height="53" viewBox="0 0 55 53">
  <defs>
    <clipPath id="clip-path">
      <rect id="Rectangle_303" data-name="Rectangle 303" width="55" height="53" fill="none"/>
    </clipPath>
  </defs>
  <g id="Group_2" data-name="Group 2" transform="translate(0 -0.001)">
    <g id="Group_381" data-name="Group 381" transform="translate(0 0.001)" clip-path="url(#clip-path)">
      <path id="Path_177" data-name="Path 177" d="M53.24,0h-4.7a1.758,1.758,0,0,0-1.737,1.481l-3.2,20.174a16.991,16.991,0,0,0-24.33,7.163H15.446V17.392a2.875,2.875,0,0,1,2.267-2.606H40.684a1.755,1.755,0,1,0,0-3.51H17.713c-2.973,0-5.784,2.972-5.784,6.116V29.946a1.738,1.738,0,0,0,.647,1.348L9.637,41.149a5.745,5.745,0,0,0-4.888,3.956H1.758a1.755,1.755,0,1,0,0,3.51H4.764A5.728,5.728,0,1,0,13.083,41.9l2.853-9.571h2.133A16.993,16.993,0,1,0,46.686,24.1a1.739,1.739,0,0,0,.183-.537L50.045,3.51h3.2a1.755,1.755,0,1,0,0-3.51M48.117,36.047A13.474,13.474,0,1,1,34.642,22.6,13.475,13.475,0,0,1,48.117,36.047" transform="translate(0 0)" fill="#a674ae"/>
      <path id="Path_178" data-name="Path 178" d="M47.077,47.156a3.276,3.276,0,1,0,3.283,3.276,3.28,3.28,0,0,0-3.283-3.276" transform="translate(-12.985 -14.054)" fill="#a674ae"/>
    </g>
  </g>
</svg>
