<svg xmlns="http://www.w3.org/2000/svg" xmlns:xlink="http://www.w3.org/1999/xlink" width="60" height="60" viewBox="0 0 60 60">
  <defs>
    <clipPath id="clip-path">
      <rect id="Rectangle_4" data-name="Rectangle 4" width="60" height="60" transform="translate(4445 -565)" fill="#fff"/>
    </clipPath>
  </defs>
  <g id="Mask_Group_15" data-name="Mask Group 15" transform="translate(-4445 565)" clip-path="url(#clip-path)">
    <g id="Group_40" data-name="Group 40" transform="translate(4458.679 -565)">
      <path id="Path_74" data-name="Path 74" d="M347.853,163.146a3.926,3.926,0,0,0-1.622-.685,5.111,5.111,0,0,0-3.878,1.26c-.72.517-1.437,1.033-2.178,1.571-.5-1.379-.935-2.695-1.473-3.975a5.583,5.583,0,0,0-.914-1.18,3.216,3.216,0,0,1-.628-.837c-1.4-4.223-2.8-8.446-4.126-12.691a2.458,2.458,0,0,0-4.265-1.033,2.52,2.52,0,0,0-4.908.872c-2.109-.621-3.79.531-3.609,2.464.194,2.035.475,4.056.73,6.073.14,1.089.307,2.164.461,3.245-.041.006-.081.021-.118.028-.111-.251-.209-.517-.324-.767-.475-1-.9-2.024-1.446-2.988a1.876,1.876,0,0,0-1.975-.956,1.831,1.831,0,0,0-1.682,1.4,3.383,3.383,0,0,0,.021,1.563c.663,2.6,1.389,5.172,2.08,7.754a1.622,1.622,0,0,1,.076.7c-.111.643-.37,1.271-.419,1.919-.37,5.273.181,10.366,2.974,15.015a.85.85,0,0,1-.007.568,2.181,2.181,0,0,1-.29.663.974.974,0,0,1-.487.4,1.894,1.894,0,0,0-1.773,2.163q-.011,2.963-.006,5.927c0,1.675.475,2.213,2.185,2.451a2.171,2.171,0,0,0,1.7,1.878,10.685,10.685,0,0,1,0,1.341c-.006.453-.006.9,0,1.357.007.914.041,1.829.076,2.744.014.349.028.691.041,1.04a1.77,1.77,0,0,0,.467,1.431.79.79,0,0,0,.775-.063,1.46,1.46,0,0,0,.349-.922c-.021-3.665-.07-2.471-.1-6.136-.006-.258,0-.517,0-.767H336.6v.782c0,.956.007,1.913.021,2.876.006.377.014.754.014,1.131.007.73.021,1.655.056,2.416a.806.806,0,0,0,1.6.056,7.244,7.244,0,0,0,.021-.956c-.035-3.644-.063-2.122-.118-5.765a1.119,1.119,0,0,1,.5-1.026,4.565,4.565,0,0,0,.726-1.066,1.957,1.957,0,0,1,.51-.6,2.1,2.1,0,0,0,1.208-1.919c.006-2.087.028-4.174-.021-6.262a1.9,1.9,0,0,0-.51-1.313,4.343,4.343,0,0,1-1.578-1.969,1.609,1.609,0,0,1-.168-.817,23.115,23.115,0,0,1,2.933-6.3,7.7,7.7,0,0,0,.544-1.731,3.489,3.489,0,0,1,.314-.8,15.37,15.37,0,0,0,1.379-2.08,10.807,10.807,0,0,1,2.59-3.665c.426-.388.879-.754,1.3-1.152a1.69,1.69,0,0,0-.073-2.665ZM320.2,192.331c-.063.035-.126.063-.188.1-.1-.168-.314-.324-.314-.5q-.031-3.152,0-6.3c0-.162.216-.314.335-.467l.168.1Zm-.608-28.355c-.51-1.8-1.012-3.56-1.493-5.326-.23-.831-.412-1.675-.608-2.515-.081-.335-.265-.789.209-.887.2-.049.635.29.74.552.844,2.045,1.64,4.1,2.443,6.171.188.487.342,1,.545,1.585-.634.146-1.185.272-1.835.419Zm10.366-16.788c.146-.307.324-.712.6-.817.181-.07.656.243.782.5a13.857,13.857,0,0,1,.775,2.045c1.217,3.692,2.408,7.4,3.637,11.175-1.019.243-1.9.453-2.834.685-.461-1.969-.935-3.878-1.357-5.794-.538-2.423-1.034-4.847-1.541-7.27-.048-.178-.131-.394-.061-.521Zm-3.853-1.661c.5-.181.956.111,1.124.74,1.319,4.957,2.625,9.919,3.951,14.926-.964.23-1.836.447-2.8.678-.29-1.472-.573-2.92-.837-4.362-.656-3.6-1.292-7.19-1.947-10.778-.1-.536-.07-1,.51-1.205Zm-4.182,3.164c.174-.29.342-.691.615-.8a.678.678,0,0,1,.9.558c.251.942.5,1.884.7,2.834.789,3.65,1.557,7.309,2.353,11.044-.831.2-1.557.388-2.394.582-.162-.754-.356-1.472-.467-2.206q-.872-5.8-1.7-11.622C321.914,148.949,321.865,148.781,321.927,148.691Zm.73,19.238a41.419,41.419,0,0,0,9.522-2.035c1.11-.37,2.2-.8,3.488-1.284-.021.419.07.8-.076,1.033-1.648,2.6-1.152,5.054.67,7.239a2.617,2.617,0,0,1,.342,3.413,37.01,37.01,0,0,0-1.745,4.922.725.725,0,0,1-.517.4q-4.492.041-8.991.007a.848.848,0,0,1-.582-.314,14.055,14.055,0,0,1-2.834-8.021c-.041-1.46-.146-2.92-.251-4.377-.06-.811-.025-.9.973-.98ZM337.219,194.3c-4.887.006-9.773,0-14.66.014-.517,0-.649-.216-.642-.685.006-3.218.014-6.436-.007-9.662-.006-.608.251-.747.8-.74,3.015.014,6.038.007,9.061.007,1.751,0,3.511-.007,5.263.006a5.081,5.081,0,0,1,.72.1c-.006.07-.006.133-.014.194h-2.688c-.691,0-1.379-.014-2.067.006a1.875,1.875,0,0,0-1.969,2.035v6.4a1.884,1.884,0,0,0,2.08,2.052c1.557.006,3.1,0,4.684.162a2.724,2.724,0,0,1-.564.114Zm-.091-9.1v7.183c-1.379,0-2.714.014-4.034-.028a.633.633,0,0,1-.453-.461c-.028-2.08-.028-4.168,0-6.246a.612.612,0,0,1,.412-.432c1.341-.031,2.695-.02,4.077-.02Zm1.752.041c.475-.081.663.162.67.582q.011,2.963,0,5.927c0,.388-.188.621-.67.6Zm5.4-18.114c-.649.852-1.1,1.857-1.668,2.771-.356.573-.754,1.124-1.145,1.682-.194.279-.419.29-.726.111-1.76-1.047-1.785-2.869-.866-4.381a.471.471,0,0,1,.188-.181c1.26-.817,2.492-1.682,3.8-2.423a6.391,6.391,0,0,1,2.035-.649c.307-.063.678.188.935.273-.9.959-1.806,1.81-2.552,2.788Z" transform="translate(-315.815 -143.861)" fill="#a674ae"/>
    </g>
  </g>
</svg>
